<?xml version="1.0" encoding="UTF-8" standalone="no"?>
<svg
   xmlns:dc="http://purl.org/dc/elements/1.1/"
   xmlns:cc="http://creativecommons.org/ns#"
   xmlns:rdf="http://www.w3.org/1999/02/22-rdf-syntax-ns#"
   xmlns:svg="http://www.w3.org/2000/svg"
   xmlns="http://www.w3.org/2000/svg"
   height="383.99631"
   width="480"
   id="svg4"
   version="1.1"
   viewBox="0 0 480 383.99631"
   role="img"
   class="svg-inline--fa fa-volume-up fa-w-18"
   data-icon="volume-up"
   data-prefix="fas"
   focusable="false"
   aria-hidden="true">
  <metadata
     id="metadata10">
    <rdf:RDF>
      <cc:Work
         rdf:about="">
        <dc:format>image/svg+xml</dc:format>
        <dc:type
           rdf:resource="http://purl.org/dc/dcmitype/StillImage" />
        <dc:title></dc:title>
      </cc:Work>
    </rdf:RDF>
  </metadata>
  <defs
     id="defs8" />
  <path
     id="path2"
     d="M 215.03,7.0458466 126.06,95.995847 H 24 c -13.26,0 -24,10.740003 -24,24.000003 v 144 c 0,13.25 10.74,24 24,24 h 102.06 l 88.97,88.95 c 15.03,15.03 40.97,4.47 40.97,-16.97 V 24.015847 C 256,2.5558466 230.04,-7.9641534 215.03,7.0458466 Z M 480,191.99585 c 0,-63.53 -32.06,-121.940003 -85.77,-156.240003 -11.19,-7.14 -26.03,-3.82 -33.12,7.46 -7.09,11.28 -3.78,26.21 7.41,33.36 39.75,25.390003 63.48,68.530003 63.48,115.420003 0,46.89 -23.73,90.03 -63.48,115.42 -11.19,7.14 -14.5,22.07 -7.41,33.36 6.51,10.36 21.12,15.14 33.12,7.46 53.71,-34.3 85.77,-92.7 85.77,-156.24 z m -141.77,-76.87 c -11.58,-6.33 -26.19,-2.16 -32.61,9.45 -6.39,11.61 -2.16,26.2 9.45,32.61 12.91,7.09 20.93,20.44 20.93,34.81 0,14.38 -8.02,27.72 -20.92,34.81 -11.61,6.41 -15.84,21 -9.45,32.61 6.43,11.66 21.05,15.8 32.61,9.45 28.23,-15.55 45.77,-45 45.77,-76.88 0,-31.88 -17.54,-61.32 -45.78,-76.86 z" />
</svg>
